HIERARCHY
ROOT hips
{
	OFFSET -0.003675 0.299928 -0.021708
	CHANNELS 6 Xposition Yposition Zposition Xrotation Yrotation Zrotation
	JOINT LowerBack
	{
		OFFSET 0.000919 0.177588 0.009275
		CHANNELS 3 Xrotation Yrotation Zrotation
		JOINT spine
		{
			OFFSET 0.000919 0.177588 0.009275
			CHANNELS 3 Xrotation Yrotation Zrotation
			JOINT chest
			{
				OFFSET 0.000456 0.100015 0.004638
				CHANNELS 3 Xrotation Yrotation Zrotation
				JOINT neck
				{
					OFFSET 0.000456 0.100015 0.004638
					CHANNELS 3 Xrotation Yrotation Zrotation
					JOINT head
					{
						OFFSET 0.000924 0.155147 0.009274
						CHANNELS 6 Xposition Yposition Zposition Xrotation Yrotation Zrotation
						End Site
						{
							OFFSET 0.000000 0.153400 0.000000
						}
					}
				}
				JOINT shoulder.L
				{
					OFFSET 0.019937 0.078966 0.057518
					CHANNELS 6 Xposition Yposition Zposition Yrotation Xrotation Zrotation
					JOINT upper_arm.L
					{
						OFFSET 0.177024 -0.020465 -0.095062
						CHANNELS 6 Xposition Yposition Zposition Xrotation Yrotation Zrotation
						JOINT forearm.L
						{
							OFFSET 0.247100 -0.135500 -0.061800
							CHANNELS 3 Xrotation Yrotation Zrotation
							JOINT hand.L
							{
								OFFSET 0.217000 -0.143000 0.039300
								CHANNELS 3 Xrotation Yrotation Zrotation
								JOINT palm.01.L
								{
									OFFSET 0.021770 -0.038291 0.012954
									CHANNELS 6 Xposition Yposition Zposition Yrotation Xrotation Zrotation
									JOINT f_index.01.L
									{
										OFFSET 0.053215 -0.044137 0.008236
										CHANNELS 3 Xrotation Yrotation Zrotation
										JOINT f_index.02.L
										{
											OFFSET 0.036108 -0.024723 -0.010656
											CHANNELS 3 Xrotation Yrotation Zrotation
											JOINT f_index.03.L
											{
												OFFSET 0.021342 -0.014948 -0.010846
												CHANNELS 3 Xrotation Yrotation Zrotation
												End Site
												{
													OFFSET 0.015600 -0.009860 -0.013421
												}
											}
										}
									}
									JOINT thumb.01.L
									{
										OFFSET -0.009090 -0.002348 -0.024223
										CHANNELS 6 Xposition Yposition Zposition Xrotation Yrotation Zrotation
										JOINT thumb.02.L
										{
											OFFSET 0.019713 -0.035076 -0.011120
											CHANNELS 3 Xrotation Yrotation Zrotation
											JOINT thumb.03.L
											{
												OFFSET 0.024877 -0.021748 -0.005176
												CHANNELS 3 Xrotation Yrotation Zrotation
												End Site
												{
													OFFSET 0.016125 -0.013029 -0.001569
												}
											}
										}
									}
								}
								JOINT palm.02.L
								{
									OFFSET 0.032823 -0.025104 0.012281
									CHANNELS 6 Xposition Yposition Zposition Yrotation Xrotation Zrotation
									JOINT f_middle.01.L
									{
										OFFSET 0.055723 -0.038469 0.008037
										CHANNELS 3 Xrotation Yrotation Zrotation
										JOINT f_middle.02.L
										{
											OFFSET 0.038167 -0.027473 -0.015582
											CHANNELS 3 Xrotation Yrotation Zrotation
											JOINT f_middle.03.L
											{
												OFFSET 0.021707 -0.016587 -0.017037
												CHANNELS 3 Xrotation Yrotation Zrotation
												End Site
												{
													OFFSET 0.014112 -0.010584 -0.014294
												}
											}
										}
									}
								}
								JOINT palm.03.L
								{
									OFFSET 0.039230 -0.011402 0.008390
									CHANNELS 6 Xposition Yposition Zposition Yrotation Xrotation Zrotation
									JOINT f_ring.01.L
									{
										OFFSET 0.061796 -0.031470 0.007910
										CHANNELS 3 Xrotation Yrotation Zrotation
										JOINT f_ring.02.L
										{
											OFFSET 0.033092 -0.023401 -0.019127
											CHANNELS 3 Xrotation Yrotation Zrotation
											JOINT f_ring.03.L
											{
												OFFSET 0.021392 -0.015362 -0.017824
												CHANNELS 3 Xrotation Yrotation Zrotation
												End Site
												{
													OFFSET 0.008670 -0.007297 -0.014686
												}
											}
										}
									}
								}
								JOINT palm.04.L
								{
									OFFSET 0.043417 0.002450 0.002889
									CHANNELS 6 Xposition Yposition Zposition Yrotation Xrotation Zrotation
									JOINT f_pinky.01.L
									{
										OFFSET 0.069986 -0.026156 0.003627
										CHANNELS 3 Xrotation Yrotation Zrotation
										JOINT f_pinky.02.L
										{
											OFFSET 0.018520 -0.012813 -0.016429
											CHANNELS 3 Xrotation Yrotation Zrotation
											JOINT f_pinky.03.L
											{
												OFFSET 0.013822 -0.009796 -0.014947
												CHANNELS 3 Xrotation Yrotation Zrotation
												End Site
												{
													OFFSET 0.007238 -0.006103 -0.011657
												}
											}
										}
									}
								}
							}
						}
					}
				}
				JOINT shoulder.R
				{
					OFFSET -0.016662 0.078957 0.057696
					CHANNELS 6 Xposition Yposition Zposition Yrotation Xrotation Zrotation
					JOINT upper_arm.R
					{
						OFFSET -0.176972 -0.020537 -0.095144
						CHANNELS 6 Xposition Yposition Zposition Xrotation Yrotation Zrotation
						JOINT forearm.R
						{
							OFFSET -0.247100 -0.135500 -0.061800
							CHANNELS 3 Xrotation Yrotation Zrotation
							JOINT hand.R
							{
								OFFSET -0.217000 -0.143000 0.039300
								CHANNELS 3 Xrotation Yrotation Zrotation
								JOINT palm.01.R
								{
									OFFSET -0.021773 -0.038278 0.012988
									CHANNELS 6 Xposition Yposition Zposition Yrotation Xrotation Zrotation
									JOINT f_index.01.R
									{
										OFFSET -0.053212 -0.044139 0.008249
										CHANNELS 3 Xrotation Yrotation Zrotation
										JOINT f_index.02.R
										{
											OFFSET -0.036049 -0.024835 -0.010634
											CHANNELS 3 Xrotation Yrotation Zrotation
											JOINT f_index.03.R
											{
												OFFSET -0.021371 -0.014881 -0.010866
												CHANNELS 3 Xrotation Yrotation Zrotation
												End Site
												{
													OFFSET -0.015584 -0.009883 -0.013422
												}
											}
										}
									}
									JOINT thumb.01.R
									{
										OFFSET 0.009113 -0.002381 -0.024211
										CHANNELS 6 Xposition Yposition Zposition Xrotation Yrotation Zrotation
										JOINT thumb.02.R
										{
											OFFSET -0.019694 -0.035097 -0.011088
											CHANNELS 3 Xrotation Yrotation Zrotation
											JOINT thumb.03.R
											{
												OFFSET -0.024867 -0.021762 -0.005168
												CHANNELS 3 Xrotation Yrotation Zrotation
												End Site
												{
													OFFSET -0.016120 -0.013036 -0.001565
												}
											}
										}
									}
								}
								JOINT palm.02.R
								{
									OFFSET -0.032828 -0.025095 0.012286
									CHANNELS 6 Xposition Yposition Zposition Yrotation Xrotation Zrotation
									JOINT f_middle.01.R
									{
										OFFSET -0.055721 -0.038472 0.008040
										CHANNELS 3 Xrotation Yrotation Zrotation
										JOINT f_middle.02.R
										{
											OFFSET -0.038101 -0.027593 -0.015557
											CHANNELS 3 Xrotation Yrotation Zrotation
											JOINT f_middle.03.R
											{
												OFFSET -0.021730 -0.016530 -0.017054
												CHANNELS 3 Xrotation Yrotation Zrotation
												End Site
												{
													OFFSET -0.014096 -0.010608 -0.014293
												}
											}
										}
									}
								}
								JOINT palm.03.R
								{
									OFFSET -0.039192 -0.011488 0.008390
									CHANNELS 6 Xposition Yposition Zposition Yrotation Xrotation Zrotation
									JOINT f_ring.01.R
									{
										OFFSET -0.061839 -0.031387 0.007876
										CHANNELS 3 Xrotation Yrotation Zrotation
										JOINT f_ring.02.R
										{
											OFFSET -0.033068 -0.023437 -0.019125
											CHANNELS 3 Xrotation Yrotation Zrotation
											JOINT f_ring.03.R
											{
												OFFSET -0.021371 -0.015393 -0.017822
												CHANNELS 3 Xrotation Yrotation Zrotation
												End Site
												{
													OFFSET -0.008654 -0.007321 -0.014684
												}
											}
										}
									}
								}
								JOINT palm.04.R
								{
									OFFSET -0.043421 0.002443 0.002845
									CHANNELS 6 Xposition Yposition Zposition Yrotation Xrotation Zrotation
									JOINT f_pinky.01.R
									{
										OFFSET -0.069983 -0.026169 0.003599
										CHANNELS 3 Xrotation Yrotation Zrotation
										JOINT f_pinky.02.R
										{
											OFFSET -0.018501 -0.012842 -0.016428
											CHANNELS 3 Xrotation Yrotation Zrotation
											JOINT f_pinky.03.R
											{
												OFFSET -0.013806 -0.009821 -0.014946
												CHANNELS 3 Xrotation Yrotation Zrotation
												End Site
												{
													OFFSET -0.007226 -0.006121 -0.011655
												}
											}
										}
									}
								}
							}
						}
					}
				}
			}
		}
	}
	JOINT pelvis.L
	{
		OFFSET 0.000000 0.000000 0.000000
		CHANNELS 6 Xposition Yposition Zposition Xrotation Yrotation Zrotation
		JOINT thigh.L
		{
			OFFSET 0.101675 0.001054 -0.000000
			CHANNELS 3 Xrotation Yrotation Zrotation
			JOINT shin.L
			{
				OFFSET 0.000000 -0.534800 0.041000
				CHANNELS 3 Xrotation Yrotation Zrotation
				JOINT foot.L
				{
					OFFSET 0.000000 -0.452000 -0.044800
					CHANNELS 3 Xrotation Yrotation Zrotation
					JOINT toe.L
					{
						OFFSET -0.000000 -0.068500 0.109600
						CHANNELS 3 Xrotation Yrotation Zrotation
						End Site
						{
							OFFSET -0.000000 0.000000 0.067200
						}
					}
				}
				JOINT heel.L
				{
					OFFSET 0.000000 -0.452000 -0.044800
					CHANNELS 3 Xrotation Yrotation Zrotation
					JOINT heel.02.L
					{
						OFFSET -0.038000 -0.085200 0.016200
						CHANNELS 6 Xposition Yposition Zposition Xrotation Yrotation Zrotation
						End Site
						{
							OFFSET 0.080000 -0.000000 0.000000
						}
					}
				}
			}
		}
	}
	JOINT pelvis.R
	{
		OFFSET 0.000000 0.000000 0.000000
		CHANNELS 6 Xposition Yposition Zposition Xrotation Yrotation Zrotation
		JOINT thigh.R
		{
			OFFSET -0.094325 0.001054 0.000000
			CHANNELS 3 Xrotation Yrotation Zrotation
			JOINT shin.R
			{
				OFFSET 0.000000 -0.534800 0.041000
				CHANNELS 3 Xrotation Yrotation Zrotation
				JOINT foot.R
				{
					OFFSET 0.000000 -0.452000 -0.044800
					CHANNELS 3 Xrotation Yrotation Zrotation
					JOINT toe.R
					{
						OFFSET -0.000000 -0.068500 0.109600
						CHANNELS 3 Xrotation Yrotation Zrotation
						End Site
						{
							OFFSET -0.000000 0.000000 0.067200
						}
					}
				}
				JOINT heel.R
				{
					OFFSET 0.000000 -0.452000 -0.044800
					CHANNELS 3 Xrotation Yrotation Zrotation
					JOINT heel.02.R
					{
						OFFSET 0.038000 -0.085200 0.016200
						CHANNELS 6 Xposition Yposition Zposition Xrotation Yrotation Zrotation
						End Site
						{
							OFFSET -0.080000 0.000000 -0.000000
						}
					}
				}
			}
		}
	}
}
MOTION
Frames: 4
Frame Time: 0.041667
-0.002589 0.259010 -0.025527 4.857285 -0.190527 -0.289943 0.000000 0.000000 -0.000000 0.000000 0.000000 0.000000 0.000000 0.000000 0.000000 0.000000 0.000000 0.000000 0.000924 0.155148 0.009274 0.486962 0.005008 1.299017 0.019937 0.078966 0.057518 1.328830 2.251221 26.174897 0.177025 -0.020466 -0.095062 -4.280064 11.989262 -70.657993 -2.949974 -5.582503 -10.230555 -0.000002 -0.000001 -0.000000 0.021770 -0.038291 0.012954 0.000000 -0.000001 -0.000004 -0.000000 -0.000001 0.000001 0.000000 0.000001 0.000001 -0.000000 0.000000 0.000005 -0.009090 -0.002348 -0.024223 0.000002 -0.000002 -0.000001 0.000002 -0.000001 0.000003 0.000000 0.000000 0.000001 0.032823 -0.025104 0.012281 -0.000000 0.000001 0.000002 -0.000001 0.000001 -0.000003 -0.000004 -0.000003 0.000007 -0.000000 0.000001 0.000003 0.039230 -0.011402 0.008390 0.000000 0.000001 0.000001 -0.000001 0.000001 0.000001 -0.000000 0.000003 0.000001 -0.000001 -0.000003 0.000002 0.043417 0.002450 0.002889 -0.000001 0.000004 -0.000004 -0.000003 -0.000002 0.000001 -0.000000 -0.000001 -0.000001 -0.000002 -0.000003 0.000000 -0.016662 0.078957 0.057696 -0.783021 1.852960 -24.858100 -0.176972 -0.020537 -0.095144 -7.635603 -12.178078 66.485225 -0.034124 2.152610 6.367406 -0.000003 -0.000001 -0.000001 -0.021773 -0.038278 0.012988 -0.000000 -0.000000 -0.000003 -0.000002 0.000002 -0.000005 -0.000001 -0.000000 -0.000001 -0.000002 0.000002 -0.000003 0.009114 -0.002381 -0.024211 0.000001 -0.000002 -0.000003 -0.000002 -0.000001 -0.000001 -0.000001 -0.000000 0.000001 -0.032828 -0.025095 0.012286 0.000002 -0.000000 -0.000001 -0.000001 0.000003 0.000002 -0.000003 -0.000004 -0.000001 0.000001 0.000003 -0.000000 -0.039192 -0.011488 0.008390 0.000001 0.000000 -0.000000 -0.000001 0.000000 -0.000002 -0.000001 0.000000 -0.000000 0.000000 0.000001 0.000002 -0.043421 0.002443 0.002844 0.000000 0.000000 -0.000001 -0.000004 0.000002 0.000003 -0.000000 -0.000003 0.000002 -0.000005 0.000002 0.000003 0.000000 -0.000000 0.000000 -1.632927 0.020456 -1.261290 -16.084580 -0.288691 -2.444586 61.692229 0.091322 -0.919284 0.000002 -0.000000 -0.000000 0.000002 0.000000 -0.000000 0.000002 0.000000 0.000000 -0.038000 -0.085200 0.016200 -0.000000 -0.000000 -0.000000 0.000000 -0.000000 0.000000 -1.597236 0.020043 -0.027135 -13.315136 0.340294 3.058452 58.150851 -0.091620 0.925745 0.000003 0.000000 0.000000 -0.000001 -0.000000 -0.000000 0.000009 0.000000 0.000000 0.038000 -0.085200 0.016200 -0.000001 -0.000000 0.000000 
-0.002581 0.258936 -0.025828 4.542486 -0.195444 -0.612100 -0.000000 0.000000 0.000000 0.000000 -0.000000 0.000000 -0.000000 0.000000 -0.000000 -0.000000 -0.000000 -0.000000 0.000924 0.155148 0.009274 2.126179 0.001156 2.221713 0.019937 0.078966 0.057518 1.723274 2.236901 26.091879 0.177025 -0.020465 -0.095062 -4.351803 11.967071 -70.604034 -3.092052 -5.721252 -10.474905 -0.000004 -0.000001 0.000005 0.021770 -0.038291 0.012954 0.000000 -0.000000 -0.000004 -0.000001 -0.000002 0.000005 -0.000001 0.000001 0.000005 -0.000000 0.000003 0.000000 -0.009090 -0.002348 -0.024224 -0.000000 0.000000 -0.000001 -0.000000 0.000002 -0.000000 -0.000001 0.000000 0.000003 0.032823 -0.025104 0.012281 -0.000001 0.000001 -0.000001 0.000000 0.000002 -0.000005 -0.000003 0.000002 -0.000000 -0.000003 -0.000002 0.000002 0.039230 -0.011402 0.008390 -0.000000 0.000000 0.000001 0.000001 -0.000001 0.000003 0.000001 0.000003 0.000001 0.000001 -0.000006 0.000003 0.043417 0.002450 0.002889 -0.000002 0.000002 -0.000003 -0.000000 -0.000007 -0.000000 -0.000001 -0.000000 -0.000004 0.000000 -0.000002 0.000001 -0.016662 0.078957 0.057696 -0.497066 1.846881 -25.080521 -0.176972 -0.020537 -0.095144 -8.850758 -12.317987 66.482562 -1.035516 3.373239 7.155634 -0.000001 -0.000000 0.000002 -0.021773 -0.038278 0.012988 -0.000001 -0.000001 -0.000003 0.000001 0.000001 0.000002 -0.000000 -0.000001 0.000002 0.000000 0.000005 0.000001 0.009114 -0.002381 -0.024212 0.000003 -0.000003 0.000002 -0.000002 -0.000002 -0.000001 -0.000000 0.000001 -0.000008 -0.032828 -0.025095 0.012286 0.000001 -0.000002 -0.000005 0.000001 0.000002 0.000004 0.000002 0.000003 0.000001 -0.000001 0.000003 -0.000002 -0.039192 -0.011488 0.008390 0.000000 -0.000000 -0.000002 -0.000001 0.000000 -0.000002 -0.000002 -0.000003 -0.000005 -0.000001 -0.000002 -0.000003 -0.043421 0.002443 0.002844 0.000000 -0.000001 -0.000003 -0.000001 0.000001 0.000001 -0.000002 -0.000004 -0.000002 -0.000000 -0.000000 0.000002 0.000000 -0.000000 0.000000 -1.640713 0.013457 -1.173776 -17.019764 -0.287224 -2.368649 61.160102 0.075052 -0.755118 -0.000002 -0.000000 -0.000000 0.000003 -0.000000 -0.000000 0.000002 -0.000000 0.000000 -0.038000 -0.085200 0.016200 -0.000001 -0.000000 -0.000000 -0.000000 0.000000 0.000000 -1.605074 0.013100 0.060396 -13.419980 0.357573 3.276032 58.168336 -0.156495 1.580447 0.000003 -0.000000 0.000000 -0.000004 0.000000 0.000000 0.000002 0.000000 0.000000 0.038000 -0.085200 0.016200 -0.000001 -0.000000 -0.000000 
-0.003172 0.254997 -0.017590 2.536393 1.532771 0.224681 -0.000000 0.000000 -0.000000 -0.000000 -0.000000 0.000000 0.000000 0.000000 -0.000000 0.000000 0.000000 -0.000000 0.000924 0.155148 0.009274 6.922366 -0.008148 2.483771 0.019937 0.078966 0.057518 1.931610 2.809674 27.134120 0.177024 -0.020465 -0.095062 -3.626013 11.857856 -71.965148 -2.625502 -5.347785 -12.104302 -0.000001 0.000000 0.000001 0.021770 -0.038291 0.012954 0.000000 -0.000001 -0.000002 -0.000001 -0.000000 0.000001 0.000000 -0.000000 0.000006 -0.000003 0.000002 0.000002 -0.009090 -0.002348 -0.024223 -0.000002 -0.000002 0.000001 -0.000001 -0.000001 0.000001 -0.000002 0.000001 -0.000002 0.032823 -0.025104 0.012281 -0.000000 0.000001 -0.000001 -0.000002 0.000001 -0.000005 -0.000005 -0.000005 0.000003 -0.000001 0.000003 0.000001 0.039230 -0.011402 0.008390 -0.000000 -0.000000 0.000004 0.000000 0.000001 0.000003 -0.000003 0.000004 0.000003 0.000001 -0.000001 0.000007 0.043417 0.002450 0.002889 0.000001 0.000001 -0.000003 -0.000000 -0.000003 -0.000002 -0.000001 0.000003 0.000003 0.000003 -0.000001 -0.000004 -0.016662 0.078957 0.057696 -3.522497 2.789873 -25.955311 -0.176972 -0.020537 -0.095144 -6.323567 -11.872467 68.284256 -4.172437 6.780904 11.931437 -0.000001 0.000002 -0.000000 -0.021773 -0.038278 0.012988 0.000000 0.000001 -0.000002 -0.000002 0.000003 -0.000001 -0.000000 -0.000002 -0.000001 0.000001 0.000002 0.000005 0.009113 -0.002381 -0.024211 0.000001 -0.000002 0.000000 0.000000 -0.000001 0.000000 0.000001 -0.000001 -0.000003 -0.032828 -0.025095 0.012286 0.000001 -0.000000 -0.000001 -0.000000 0.000003 0.000001 0.000001 0.000000 -0.000000 -0.000001 0.000000 -0.000000 -0.039192 -0.011488 0.008390 0.000000 0.000001 0.000003 0.000001 0.000003 -0.000003 0.000002 -0.000003 -0.000002 0.000001 0.000002 -0.000004 -0.043421 0.002443 0.002845 -0.000001 0.000000 -0.000001 -0.000005 0.000000 -0.000001 -0.000000 -0.000001 0.000004 -0.000003 -0.000001 0.000001 0.000000 0.000000 -0.000000 -1.604686 0.019258 -1.250449 0.842003 -0.224053 -2.670701 31.306257 -0.267186 2.698835 -0.000002 0.000000 0.000000 0.000002 0.000000 0.000000 0.000000 -0.000000 -0.000000 -0.038000 -0.085200 0.016200 -0.000003 -0.000000 0.000000 -0.000000 -0.000000 -0.000000 -1.569643 0.018854 -0.016269 6.477214 0.395355 5.295457 26.818162 0.440100 -4.444117 0.000000 -0.000000 -0.000000 0.000003 -0.000000 -0.000000 0.000003 -0.000000 -0.000000 0.038000 -0.085200 0.016200 0.000001 0.000000 -0.000000 
-0.003394 0.256636 -0.019096 1.769107 0.559112 0.057962 0.000000 -0.000000 -0.000000 -0.000000 -0.000000 0.000000 0.000000 0.000000 -0.000000 0.000000 0.000000 -0.000000 0.000924 0.155148 0.009274 8.279665 -0.010298 2.355193 0.019937 0.078966 0.057518 1.620874 2.778074 27.083061 0.177024 -0.020465 -0.095062 -4.268140 11.885355 -72.021647 -1.350931 -4.188668 -12.061860 -0.000001 -0.000000 -0.000001 0.021770 -0.038291 0.012954 0.000001 0.000000 -0.000002 -0.000002 -0.000000 -0.000000 -0.000000 -0.000000 0.000010 -0.000001 0.000002 0.000002 -0.009090 -0.002348 -0.024224 -0.000000 0.000000 -0.000001 -0.000001 0.000001 -0.000000 -0.000001 0.000001 -0.000001 0.032823 -0.025104 0.012281 -0.000001 -0.000000 0.000002 0.000002 0.000003 -0.000003 -0.000003 -0.000000 -0.000000 -0.000002 -0.000006 0.000004 0.039230 -0.011402 0.008390 0.000000 0.000002 0.000006 -0.000001 0.000001 -0.000002 0.000000 0.000003 0.000003 0.000000 0.000000 0.000003 0.043417 0.002450 0.002889 0.000001 0.000001 -0.000003 -0.000000 -0.000003 -0.000000 0.000002 -0.000001 -0.000003 -0.000002 0.000001 0.000001 -0.016662 0.078956 0.057696 -3.642447 2.758827 -25.720291 -0.176972 -0.020537 -0.095144 -6.391522 -11.800147 68.902258 -2.383546 5.138119 11.713962 0.000001 0.000004 -0.000002 -0.021773 -0.038278 0.012988 -0.000001 -0.000002 -0.000002 -0.000001 0.000003 0.000001 0.000002 -0.000000 -0.000003 -0.000002 0.000002 0.000002 0.009113 -0.002381 -0.024212 0.000003 0.000000 0.000003 -0.000000 -0.000001 -0.000005 0.000001 -0.000001 -0.000003 -0.032828 -0.025095 0.012286 -0.000001 -0.000001 -0.000001 0.000002 0.000003 0.000006 0.000001 -0.000001 -0.000001 -0.000000 0.000006 -0.000005 -0.039192 -0.011488 0.008390 -0.000002 0.000001 0.000005 0.000000 0.000000 -0.000002 0.000004 -0.000005 0.000001 0.000001 0.000004 0.000002 -0.043421 0.002443 0.002845 -0.000003 0.000001 0.000004 -0.000002 0.000005 -0.000001 -0.000003 -0.000004 -0.000002 0.000001 -0.000000 0.000002 0.000000 0.000000 0.000000 -1.599198 0.009766 -1.133012 -1.909406 -0.195760 -2.127477 34.325304 -0.256944 2.595382 -0.000003 0.000000 0.000000 -0.000000 0.000000 -0.000000 -0.000005 0.000000 0.000000 -0.038000 -0.085200 0.016200 -0.000000 -0.000000 -0.000000 0.000000 0.000000 0.000000 -1.564565 0.009442 0.101155 5.848829 0.396077 5.257536 25.494144 0.418778 -4.228380 -0.000003 0.000000 -0.000000 0.000001 -0.000000 0.000000 -0.000002 0.000000 0.000000 0.038000 -0.085200 0.016200 -0.000004 0.000000 0.000000 
